<?xml version="1.0" encoding="UTF-8" standalone="no"?>
<!DOCTYPE svg PUBLIC "-//W3C//DTD SVG 1.1//EN" "http://www.w3.org/Graphics/SVG/1.1/DTD/svg11.dtd">
<svg width="100%" height="100%" viewBox="0 0 2600 900" version="1.1" xmlns="http://www.w3.org/2000/svg" xmlns:xlink="http://www.w3.org/1999/xlink" xml:space="preserve" xmlns:serif="http://www.serif.com/" style="fill-rule:evenodd;clip-rule:evenodd;stroke-linecap:round;stroke-linejoin:round;stroke-miterlimit:1.5;">
    <g transform="matrix(1,0,0,1,-59,-450)">
        <g transform="matrix(0.863636,0,0,1,-42.8779,8)">
            <path d="M519,612.5C519,586.284 494.355,565 464,565L354,565C323.645,565 299,586.284 299,612.5L299,1171.5C299,1197.72 323.645,1219 354,1219L464,1219C494.355,1219 519,1197.72 519,1171.5L519,612.5Z" style="fill:none;stroke:rgb(104,221,1);stroke-width:26.76px;"/>
        </g>
        <g transform="matrix(0.863636,0,0,1,211.556,8)">
            <path d="M519,612.5C519,586.284 494.355,565 464,565L354,565C323.645,565 299,586.284 299,612.5L299,1171.5C299,1197.72 323.645,1219 354,1219L464,1219C494.355,1219 519,1197.72 519,1171.5L519,612.5Z" style="fill:none;stroke:rgb(104,221,1);stroke-width:26.76px;"/>
        </g>
        <g transform="matrix(0.863636,0,0,1,465.99,8)">
            <path d="M519,612.5C519,586.284 494.355,565 464,565L354,565C323.645,565 299,586.284 299,612.5L299,1171.5C299,1197.72 323.645,1219 354,1219L464,1219C494.355,1219 519,1197.72 519,1171.5L519,612.5Z" style="fill:none;stroke:rgb(104,221,1);stroke-width:26.76px;"/>
        </g>
        <g transform="matrix(0.863636,0,0,1,720.423,8)">
            <path d="M519,612.5C519,586.284 494.355,565 464,565L354,565C323.645,565 299,586.284 299,612.5L299,1171.5C299,1197.72 323.645,1219 354,1219L464,1219C494.355,1219 519,1197.72 519,1171.5L519,612.5Z" style="fill:none;stroke:rgb(104,221,1);stroke-width:26.76px;"/>
        </g>
        <g transform="matrix(5.00603e-17,0.817547,-0.817547,5.00603e-17,1400.67,452.647)">
            <circle cx="269" cy="400" r="94" style="fill:rgb(128,128,128);"/>
        </g>
        <g transform="matrix(5.00603e-17,0.817547,-0.817547,5.00603e-17,1400.67,680.08)">
            <circle cx="269" cy="400" r="94" style="fill:rgb(128,128,128);"/>
        </g>
        <g transform="matrix(5.00603e-17,0.817547,-0.817547,5.00603e-17,1400.67,907.513)">
            <circle cx="269" cy="400" r="94" style="fill:rgb(128,128,128);"/>
        </g>
        <g transform="matrix(5.00603e-17,0.817547,-0.817547,5.00603e-17,1146.24,452.647)">
            <circle cx="269" cy="400" r="94" style="fill:rgb(128,128,128);"/>
        </g>
        <g transform="matrix(5.00603e-17,0.817547,-0.817547,5.00603e-17,1146.24,680.08)">
            <circle cx="269" cy="400" r="94" style="fill:rgb(128,128,128);"/>
        </g>
        <g transform="matrix(5.00603e-17,0.817547,-0.817547,5.00603e-17,1146.24,907.513)">
            <circle cx="269" cy="400" r="94" style="fill:rgb(128,128,128);"/>
        </g>
        <g transform="matrix(5.00603e-17,0.817547,-0.817547,5.00603e-17,891.802,452.647)">
            <circle cx="269" cy="400" r="94" style="fill:rgb(128,128,128);"/>
        </g>
        <g transform="matrix(5.00603e-17,0.817547,-0.817547,5.00603e-17,891.802,680.08)">
            <circle cx="269" cy="400" r="94" style="fill:rgb(128,128,128);"/>
        </g>
        <g transform="matrix(5.00603e-17,0.817547,-0.817547,5.00603e-17,891.802,907.513)">
            <circle cx="269" cy="400" r="94" style="fill:rgb(128,128,128);"/>
        </g>
        <g transform="matrix(5.00603e-17,0.817547,-0.817547,5.00603e-17,637.368,452.647)">
            <circle cx="269" cy="400" r="94" style="fill:rgb(128,128,128);"/>
        </g>
        <g transform="matrix(5.00603e-17,0.817547,-0.817547,5.00603e-17,637.368,680.08)">
            <circle cx="269" cy="400" r="94" style="fill:rgb(128,128,128);"/>
        </g>
        <g transform="matrix(5.00603e-17,0.817547,-0.817547,5.00603e-17,637.368,907.513)">
            <circle cx="269" cy="400" r="94" style="fill:rgb(128,128,128);"/>
        </g>
    </g>
    <g transform="matrix(1,0,0,1,-276,-450)">
        <g>
            <g transform="matrix(5.00603e-17,0.817547,-0.817547,5.00603e-17,2951.67,452.647)">
                <circle cx="269" cy="400" r="94" style="fill:rgb(128,128,128);"/>
            </g>
            <g transform="matrix(5.00603e-17,0.817547,-0.817547,5.00603e-17,2697.24,452.647)">
                <circle cx="269" cy="400" r="94" style="fill:rgb(128,128,128);"/>
            </g>
            <g transform="matrix(5.00603e-17,0.817547,-0.817547,5.00603e-17,2442.8,452.647)">
                <circle cx="269" cy="400" r="94" style="fill:rgb(128,128,128);"/>
            </g>
            <g transform="matrix(5.00603e-17,0.817547,-0.817547,5.00603e-17,2188.37,452.647)">
                <circle cx="269" cy="400" r="94" style="fill:rgb(128,128,128);"/>
            </g>
        </g>
        <g transform="matrix(5.00603e-17,0.817547,-0.817547,5.00603e-17,2951.67,680.08)">
            <circle cx="269" cy="400" r="94" style="fill:rgb(128,128,128);"/>
        </g>
        <g transform="matrix(5.00603e-17,0.817547,-0.817547,5.00603e-17,2951.67,907.513)">
            <circle cx="269" cy="400" r="94" style="fill:rgb(128,128,128);"/>
        </g>
        <g transform="matrix(5.00603e-17,0.817547,-0.817547,5.00603e-17,2697.24,680.08)">
            <circle cx="269" cy="400" r="94" style="fill:rgb(128,128,128);"/>
        </g>
        <g transform="matrix(5.00603e-17,0.817547,-0.817547,5.00603e-17,2697.24,907.513)">
            <circle cx="269" cy="400" r="94" style="fill:rgb(128,128,128);"/>
        </g>
        <g transform="matrix(5.00603e-17,0.817547,-0.817547,5.00603e-17,2442.8,680.08)">
            <circle cx="269" cy="400" r="94" style="fill:rgb(128,128,128);"/>
        </g>
        <g transform="matrix(5.00603e-17,0.817547,-0.817547,5.00603e-17,2442.8,907.513)">
            <circle cx="269" cy="400" r="94" style="fill:rgb(128,128,128);"/>
        </g>
        <g transform="matrix(5.00603e-17,0.817547,-0.817547,5.00603e-17,2188.37,680.08)">
            <circle cx="269" cy="400" r="94" style="fill:rgb(128,128,128);"/>
        </g>
        <g transform="matrix(5.00603e-17,0.817547,-0.817547,5.00603e-17,2188.37,907.513)">
            <circle cx="269" cy="400" r="94" style="fill:rgb(128,128,128);"/>
        </g>
        <g transform="matrix(4.33319,0,0,0.29052,470.726,413.424)">
            <path d="M519,728.5C519,638.262 514.088,565 508.038,565L309.962,565C303.912,565 299,638.262 299,728.5L299,1055.5C299,1145.74 303.912,1219 309.962,1219L508.038,1219C514.088,1219 519,1145.74 519,1055.5L519,728.5Z" style="fill:none;stroke:rgb(104,221,1);stroke-width:8.14px;"/>
        </g>
        <g transform="matrix(4.33319,0,0,0.29052,470.726,640.856)">
            <path d="M519,728.5C519,638.262 514.088,565 508.038,565L309.962,565C303.912,565 299,638.262 299,728.5L299,1055.5C299,1145.74 303.912,1219 309.962,1219L508.038,1219C514.088,1219 519,1145.74 519,1055.5L519,728.5Z" style="fill:none;stroke:rgb(104,221,1);stroke-width:8.14px;"/>
        </g>
        <g transform="matrix(4.33319,0,0,0.29052,470.726,868.289)">
            <path d="M519,728.5C519,638.262 514.088,565 508.038,565L309.962,565C303.912,565 299,638.262 299,728.5L299,1055.5C299,1145.74 303.912,1219 309.962,1219L508.038,1219C514.088,1219 519,1145.74 519,1055.5L519,728.5Z" style="fill:none;stroke:rgb(104,221,1);stroke-width:8.14px;"/>
        </g>
    </g>
</svg>
